<?xml version="1.0" encoding="UTF-8" standalone="no"?>
<svg
    xmlns="http://www.w3.org/2000/svg"
    viewBox="0 0 135 135">
<rect width="135" height="135" fill="none"/><g featurekey="root" fill="#391f70" transform="matrix(1,0,0,1,0,0)"></g><g featurekey="container1" fill="#bb4747" transform="matrix(1.350000023841858,0,0,1.350000023841858,0,0)"><circle xmlns="http://www.w3.org/2000/svg" cx="50" cy="50" r="50"></circle></g><g featurekey="text1" fill="#1e0662" transform="matrix(5.454843044281006,0,0,5.454843044281006,20.908704142641575,-5.3292546617500705)"><path d="M4.16 20 l-2.6 0 l0 -9.16 l2.6 0 l0 9.16 z M2.86 9.74 c-0.86 0 -1.56 -0.7 -1.56 -1.54 c0 -0.42 0.16 -0.8 0.46 -1.08 c0.3 -0.3 0.68 -0.46 1.1 -0.46 c0.84 0 1.54 0.7 1.54 1.54 s-0.7 1.54 -1.54 1.54 z M11.16 20.22 c-1.24 0 -2.46 -0.5 -3.4 -1.4 c-0.9 -0.94 -1.4 -2.16 -1.4 -3.4 c0 -1.26 0.5 -2.48 1.4 -3.4 c0.92 -0.88 2.12 -1.38 3.4 -1.38 c1.32 0 2.52 0.5 3.38 1.38 c0.92 0.92 1.42 2.12 1.42 3.4 s-0.5 2.48 -1.42 3.4 c-0.9 0.9 -2.1 1.4 -3.38 1.4 z M11.16 12.92 c-1.34 0 -2.44 1.12 -2.44 2.5 s1.1 2.5 2.44 2.5 c1.36 0 2.46 -1.12 2.46 -2.5 s-1.1 -2.5 -2.46 -2.5 z"></path></g></svg>
